
<svg version="1.1" id="Layer_1" xmlns="http://www.w3.org/2000/svg" xmlns:xlink="http://www.w3.org/1999/xlink" x="0px" y="0px"
	 viewBox="0 0 512 512" style="enable-background:new 0 0 512 512;" xml:space="preserve">

<path class="st0 " d="M256,1C114.9,1,0.5,115.4,0.5,256.5S114.9,512,256,512s255.5-114.4,255.5-255.5S397.1,1,256,1z M411,343.7
	c0,16.1-13.1,29.1-29.1,29.1H130c-16.1,0-29.1-13.1-29.1-29.1V221.4l126.4,98.3c8.6,6.6,18.6,9.9,28.6,9.9s20-3.2,28.7-9.8
	L411,221.4V343.7z M401.2,189.5l-128.5,100c-9.8,7.6-23.6,7.6-33.4,0l-128.5-100c-6.3-4.9-9.9-12.3-9.9-20.2
	c0-16.1,13.1-29.1,29.1-29.1H382c16.1,0,29.1,13.1,29.1,29.1C411,177.2,407,184.7,401.2,189.5z"/>
</svg>
